<svg xmlns="http://www.w3.org/2000/svg">
    <!-- Home Icon -->
    <symbol id="icon-home" viewBox="0 0 512 512"><path d="M505.51,229.63,287.06,38.6a45.67,45.67,0,0,0-59.55-.16L6.56,229.57c-11.75,10.17-4.3,29,11.48,29H52v186.1a39.87,39.87,0,0,0,39.87,39.87h80.43a20,20,0,0,0,20-20V342.19a22.41,22.41,0,0,1,22.41-22.42h82.54a22.41,22.41,0,0,1,22.41,22.42V464.47a20,20,0,0,0,20.05,20h80.43A39.87,39.87,0,0,0,460,444.65V258.55H494C509.7,258.55,517.17,239.83,505.51,229.63Z"/>
    </symbol>
    <!-- Chart Icon -->
    <symbol id="icon-chart" viewBox="0 0 512 512">
        <rect fill="#fff" x="15.67" y="218.66" width="99.58" height="292.52" rx="48.55"/>
        <rect fill="#fff" x="206.21" y="107.87" width="99.58" height="403.31" rx="48.55"/>
        <rect fill="#fff" x="396.75" y="0.82" width="99.58" height="510.36" rx="48.55"/>
    </symbol>
    <!-- Calendar -->
    <symbol id="icon-calendar" viewBox="0 0 512 512"><path d="M511.18,  90.65V165.6H.82V90.65C.82,65.84,25.05,45.71,55,45.71H82.7V91.46a42.53,42.53,0,1,0,85.05,0V45.71h176.5V91.46a42.53,42.53,0,1,0,85.05,0V45.71h27.75C487,45.71,511.18,65.84,511.18,90.65Z"/><path d="M.82,193.81V456.15c0,29.63,24.23,53.64,54.13,53.64h402.1c29.9,0,54.13-24,54.13-53.64V193.81ZM90.87,462.87a23.57,23.57,0,1,1,23.57-23.57A23.58,23.58,0,0,1,90.87,462.87Zm0-87.49a23.58,23.58,0,1,1,23.57-23.57A23.58,23.58,0,0,1,90.87,375.38ZM201,462.87a23.57,23.57,0,1,1,23.57-23.57A23.57,23.57,0,0,1,201,462.87Zm0-87.49a23.58,23.58,0,1,1,23.57-23.57A23.57,23.57,0,0,1,201,375.38Zm0-87.51a23.57,23.57,0,1,1,23.57-23.57A23.56,23.56,0,0,1,201,287.87Zm110.1,175a23.57,23.57,0,1,1,23.56-23.57A23.57,23.57,0,0,1,311.05,462.87Zm0-87.49a23.58,23.58,0,1,1,23.56-23.57A23.57,23.57,0,0,1,311.05,375.38Zm0-87.51a23.57,23.57,0,1,1,23.56-23.57A23.55,23.55,0,0,1,311.05,287.87Zm110.08,87.51a23.58,23.58,0,1,1,23.58-23.57A23.58,23.58,0,0,1,421.13,375.38Zm0-87.51a23.57,23.57,0,1,1,23.58-23.57A23.57,23.57,0,0,1,421.13,287.87Z"/><path d="M125.23,114.14a22.69,22.69,0,0,0,22.68-22.68V24.9a22.68,22.68,0,1,0-45.36,0V91.46A22.67,22.67,0,0,0,125.23,114.14Z"/><path d="M386.77,114.14a22.68,22.68,0,0,0,22.68-22.68V24.9a22.68,22.68,0,1,0-45.36,0V91.46A22.69,22.69,0,0,0,386.77,114.14Z"/>
    </symbol>
    <!-- Glossary -->
    <symbol id="icon-glossary" viewBox="0 0 512 512"><path d="M64 480H48a32 32 0 01-32-32V112a32 32 0 0132-32h16a32 32 0 0132 32v336a32 32 0 01-32 32zM240 176a32 32 0 00-32-32h-64a32 32 0 00-32 32v28a4 4 0 004 4h120a4 4 0 004-4zM112 448a32 32 0 0032 32h64a32 32 0 0032-32v-30a2 2 0 00-2-2H114a2 2 0 00-2 2z"/><rect x="112" y="240" width="128" height="144" rx="2" ry="2"/><path d="M320 480h-32a32 32 0 01-32-32V64a32 32 0 0132-32h32a32 32 0 0132 32v384a32 32 0 01-32 32zM495.89 445.45l-32.23-340c-1.48-15.65-16.94-27-34.53-25.31l-31.85 3c-17.59 1.67-30.65 15.71-29.17 31.36l32.23 340c1.48 15.65 16.94 27 34.53 25.31l31.85-3c17.59-1.67 30.65-15.71 29.17-31.36z"/>
    </symbol>
</svg>


